<?xml version="1.0" encoding="UTF-8" standalone="no"?>
<!DOCTYPE svg PUBLIC "-//W3C//DTD SVG 1.1//EN"
 "http://www.w3.org/Graphics/SVG/1.1/DTD/svg11.dtd">
<!-- Generated by graphviz version 8.1.0 (20230707.0739)
 -->
<!-- Pages: 1 -->
<svg width="2684pt" height="734pt"
 viewBox="0.00 0.00 2684.40 734.00" xmlns="http://www.w3.org/2000/svg" xmlns:xlink="http://www.w3.org/1999/xlink">
<g id="graph0" class="graph" transform="scale(1 1) rotate(0) translate(4 730)">
<polygon fill="white" stroke="none" points="-4,4 -4,-730 2680.4,-730 2680.4,4 -4,4"/>
<text text-anchor="start" x="1066.33" y="-6.7" font-family="Arial" font-size="34.00">Spring PetClinic &#45; Deployment &#45; Live</text>
<g id="clust1" class="cluster">
<title>cluster_5</title>
<polygon fill="none" stroke="#888888" points="8,-64 8,-718 2668.4,-718 2668.4,-64 8,-64"/>
<text text-anchor="start" x="1218.58" y="-89.2" font-family="Arial" font-size="24.00" fill="#000000">Amazon Web Services</text>
<text text-anchor="start" x="1257.2" y="-69.95" font-family="Arial" font-size="19.00" fill="#000000">[Deployment Node]</text>
</g>
<g id="clust2" class="cluster">
<title>cluster_6</title>
<polygon fill="none" stroke="#888888" points="33,-140 33,-693 2643.4,-693 2643.4,-140 33,-140"/>
<text text-anchor="start" x="1283.08" y="-165.2" font-family="Arial" font-size="24.00" fill="#000000">US&#45;East&#45;1</text>
<text text-anchor="start" x="1257.2" y="-145.95" font-family="Arial" font-size="19.00" fill="#000000">[Deployment Node]</text>
</g>
<g id="clust3" class="cluster">
<title>cluster_12</title>
<polygon fill="none" stroke="#888888" points="2117.3,-216 2117.3,-668 2618.4,-668 2618.4,-216 2117.3,-216"/>
<text text-anchor="start" x="2296.23" y="-241.2" font-family="Arial" font-size="24.00" fill="#000000">Amazon RDS</text>
<text text-anchor="start" x="2286.85" y="-221.95" font-family="Arial" font-size="19.00" fill="#000000">[Deployment Node]</text>
</g>
<g id="clust4" class="cluster">
<title>cluster_13</title>
<polygon fill="none" stroke="#888888" points="2142.3,-292 2142.3,-643 2593.4,-643 2593.4,-292 2142.3,-292"/>
<text text-anchor="start" x="2328.1" y="-317.2" font-family="Arial" font-size="24.00" fill="#000000">MySQL</text>
<text text-anchor="start" x="2286.85" y="-297.95" font-family="Arial" font-size="19.00" fill="#000000">[Deployment Node]</text>
</g>
<g id="clust5" class="cluster">
<title>cluster_9</title>
<polygon fill="none" stroke="#888888" points="1363.95,-238 1363.95,-646 1837.3,-646 1837.3,-238 1363.95,-238"/>
<text text-anchor="start" x="1506.13" y="-263.2" font-family="Arial" font-size="24.00" fill="#000000">Autoscaling group</text>
<text text-anchor="start" x="1519.63" y="-243.95" font-family="Arial" font-size="19.00" fill="#000000">[Deployment Node]</text>
</g>
<g id="clust6" class="cluster">
<title>cluster_10</title>
<polygon fill="none" stroke="#888888" points="1388.95,-314 1388.95,-621 1812.3,-621 1812.3,-314 1388.95,-314"/>
<text text-anchor="start" x="1530.88" y="-339.2" font-family="Arial" font-size="24.00" fill="#000000">Amazon EC2</text>
<text text-anchor="start" x="1519.63" y="-319.95" font-family="Arial" font-size="19.00" fill="#000000">[Deployment Node]</text>
</g>
<!-- 14 -->
<g id="14" class="node">
<title>14</title>
<path fill="#ffffff" stroke="#b2b2b2" d="M2568.4,-595.49C2568.4,-608.05 2478.51,-618.26 2367.85,-618.26 2257.19,-618.26 2167.3,-608.05 2167.3,-595.49 2167.3,-595.49 2167.3,-390.51 2167.3,-390.51 2167.3,-377.95 2257.19,-367.74 2367.85,-367.74 2478.51,-367.74 2568.4,-377.95 2568.4,-390.51 2568.4,-390.51 2568.4,-595.49 2568.4,-595.49"/>
<path fill="none" stroke="#b2b2b2" d="M2568.4,-595.49C2568.4,-582.92 2478.51,-572.71 2367.85,-572.71 2257.19,-572.71 2167.3,-582.92 2167.3,-595.49"/>
<text text-anchor="start" x="2295.48" y="-531.2" font-family="Arial" font-size="34.00" fill="#000000">Database</text>
<text text-anchor="start" x="2196.1" y="-511.45" font-family="Arial" font-size="19.00" fill="#000000">[Container: Relational database schema]</text>
<text text-anchor="start" x="2218.23" y="-473.7" font-family="Arial" font-size="24.00" fill="#000000">Stores information regarding</text>
<text text-anchor="start" x="2257.23" y="-449.7" font-family="Arial" font-size="24.00" fill="#000000">the veterinarians, the</text>
<text text-anchor="start" x="2252.35" y="-425.7" font-family="Arial" font-size="24.00" fill="#000000">clients, and their pets.</text>
</g>
<!-- 7 -->
<g id="7" class="node">
<title>7</title>
<polygon fill="#ffffff" stroke="#b2b2b2" points="416.35,-572.1 58,-572.1 58,-413.9 416.35,-413.9 416.35,-572.1"/>
<text text-anchor="start" x="168.55" y="-519.2" font-family="Arial" font-size="34.00" fill="#000000">Route 53</text>
<text text-anchor="start" x="151.68" y="-499.45" font-family="Arial" font-size="19.00" fill="#000000">[Infrastructure Node]</text>
<text text-anchor="start" x="86.8" y="-461.7" font-family="Arial" font-size="24.00" fill="#000000">Highly available and scalable</text>
<text text-anchor="start" x="136.68" y="-437.7" font-family="Arial" font-size="24.00" fill="#000000">cloud DNS service.</text>
</g>
<!-- 8 -->
<g id="8" class="node">
<title>8</title>
<polygon fill="#ffffff" stroke="#b2b2b2" points="1097.2,-572.1 711.1,-572.1 711.1,-413.9 1097.2,-413.9 1097.2,-572.1"/>
<text text-anchor="start" x="739.9" y="-519.2" font-family="Arial" font-size="34.00" fill="#000000">Elastic Load Balancer</text>
<text text-anchor="start" x="818.65" y="-499.45" font-family="Arial" font-size="19.00" fill="#000000">[Infrastructure Node]</text>
<text text-anchor="start" x="776.65" y="-461.7" font-family="Arial" font-size="24.00" fill="#000000">Automatically distributes</text>
<text text-anchor="start" x="760.53" y="-437.7" font-family="Arial" font-size="24.00" fill="#000000">incoming application traffic.</text>
</g>
<!-- 7&#45;&gt;8 -->
<g id="16" class="edge">
<title>7&#45;&gt;8</title>
<path fill="none" stroke="#707070" stroke-dasharray="5,2" d="M416.81,-493C504.06,-493 609.43,-493 699.75,-493"/>
<polygon fill="#707070" stroke="#707070" points="699.69,-496.5 709.69,-493 699.69,-489.5 699.69,-496.5"/>
<text text-anchor="start" x="452.35" y="-514.2" font-family="Arial" font-size="24.00" fill="#707070">Forwards requests to</text>
<text text-anchor="start" x="528.48" y="-494.95" font-family="Arial" font-size="19.00" fill="#707070">[HTTPS]</text>
</g>
<!-- 11 -->
<g id="11" class="node">
<title>11</title>
<polygon fill="#ffffff" stroke="#b2b2b2" points="1787.3,-596.1 1413.95,-596.1 1413.95,-389.9 1787.3,-389.9 1787.3,-596.1"/>
<text text-anchor="start" x="1477.63" y="-543.2" font-family="Arial" font-size="34.00" fill="#000000">Web Application</text>
<text text-anchor="start" x="1459.25" y="-523.45" font-family="Arial" font-size="19.00" fill="#000000">[Container: Java and Spring Boot]</text>
<text text-anchor="start" x="1444.25" y="-485.7" font-family="Arial" font-size="24.00" fill="#000000">Allows employees to view and</text>
<text text-anchor="start" x="1442.75" y="-461.7" font-family="Arial" font-size="24.00" fill="#000000">manage information regarding</text>
<text text-anchor="start" x="1490" y="-437.7" font-family="Arial" font-size="24.00" fill="#000000">the veterinarians, the</text>
<text text-anchor="start" x="1485.13" y="-413.7" font-family="Arial" font-size="24.00" fill="#000000">clients, and their pets.</text>
</g>
<!-- 8&#45;&gt;11 -->
<g id="17" class="edge">
<title>8&#45;&gt;11</title>
<path fill="none" stroke="#707070" stroke-dasharray="5,2" d="M1097.68,-493C1192.67,-493 1307.07,-493 1402.65,-493"/>
<polygon fill="#707070" stroke="#707070" points="1402.62,-496.5 1412.62,-493 1402.62,-489.5 1402.62,-496.5"/>
<text text-anchor="start" x="1133.2" y="-514.2" font-family="Arial" font-size="24.00" fill="#707070">Forwards requests to</text>
<text text-anchor="start" x="1209.33" y="-494.95" font-family="Arial" font-size="19.00" fill="#707070">[HTTPS]</text>
</g>
<!-- 11&#45;&gt;14 -->
<g id="15" class="edge">
<title>11&#45;&gt;14</title>
<path fill="none" stroke="#707070" stroke-dasharray="5,2" d="M1787.35,-493C1898.67,-493 2040.55,-493 2156.06,-493"/>
<polygon fill="#707070" stroke="#707070" points="2155.8,-496.5 2165.8,-493 2155.8,-489.5 2155.8,-496.5"/>
<text text-anchor="start" x="1845.3" y="-514.2" font-family="Arial" font-size="24.00" fill="#707070">Reads from and writes to</text>
<text text-anchor="start" x="1882.8" y="-494.95" font-family="Arial" font-size="19.00" fill="#707070">[MySQL Protocol/SSL]</text>
</g>
</g>
</svg>
